<svg xmlns="http://www.w3.org/2000/svg" viewBox="10 10 50 50" width="50px" height="50px">
    <title>follow icon</title><g id="Layer_11">
    <g id="Shape_25">
        <path id="Shape_25-2" d="M33.67,38.67a1.06,1.06,0,0,1-.93-.16.56.56,0,0,0,.51.47,2.91,2.91,0,0,0-1,1.05q-1.16,1.69-2.31,3.36a1.38,1.38,0,0,1-.82.7c-.69.12-1.08-.75-1.27-1.43a19.08,19.08,0,0,0-4.37-7.92c-.67,1.45-1.32,2.9-2,4.35-.19.41-.37.94-.08,1.3a10,10,0,0,1,1.73,3l-4.19.17c-.46,0-1.07-.06-1.19-.52a1.12,1.12,0,0,1,.18-.71l5.36-10.21a7.62,7.62,0,0,0,.58-3.68c0-3.87-.07-7.73-.1-11.59a.64.64,0,0,0-.06-.28c-.09-.13-.26-.14-.41-.18a1.8,1.8,0,0,1-1.1-1.86,4.14,4.14,0,0,1,3.42-3.94,1.76,1.76,0,0,1,.88,0,1.71,1.71,0,0,1,.7.49,3.29,3.29,0,0,1,.77,2.93,3.25,3.25,0,0,1-2,2.26c-.64.23-.67,1.11-.6,1.78a79.89,79.89,0,0,1,.44,12.66,4.51,4.51,0,0,0,1.3,2.67,15.1,15.1,0,0,1,2.42,4.72.48.48,0,0,0,.6.23,2,2,0,0,0,.59-.42,3,3,0,0,1,2.15-.73,1.37,1.37,0,0,1,1,.43.66.66,0,0,1-.08.93l0,0"/></g><g id="Shape_29" data-name="Shape 29"><path id="Shape_29-2" data-name="Shape 29-2" d="M38.45,33.11a.91.91,0,0,0-.2-.52,1,1,0,0,0-.7-.15l-1.74.14a3.23,3.23,0,0,1-1.66-.16,1.1,1.1,0,0,1-.6-1.38l4.26.05c.3,0,.71-.1.69-.4a7.65,7.65,0,0,1,.59-3,1.83,1.83,0,0,1,.5-.86.68.68,0,0,1,.9,0,.9.9,0,0,1,.21.5,7.49,7.49,0,0,1,0,2.67c-.07.4,0,1,.4,1a12.71,12.71,0,0,1,5.22.74c.32.18.25.72-.06.94a1.65,1.65,0,0,1-1.09.18L41,32.56c-.23,0-.3.31-.29.53,0,1.18.1,2.35.14,3.53,0,.62-.11,1.45-.74,1.54a.87.87,0,0,1-.81-.46,2.55,2.55,0,0,1-.27-.94l-.57-3.65"/>
</g></g></svg>