<?xml version="1.0" encoding="utf-8"?>
<!-- Generator: Adobe Illustrator 23.0.3, SVG Export Plug-In . SVG Version: 6.00 Build 0)  -->
<svg version="1.1" id="Layer_1" xmlns="http://www.w3.org/2000/svg" xmlns:xlink="http://www.w3.org/1999/xlink" x="0px" y="0px"
	 viewBox="0 0 104.17 101.74" style="fill:#B2C5CC; enable-background:new 0 0 104.17 101.74;" xml:space="preserve">
<!--<style type="text/css">-->
<!--	.st0{fill:#B2C5CC;}-->
<!--	.st1{fill:#66BCB1;}-->
<!--	.st2{fill:#F6B985;}-->
<!--	.st3{fill:#F9E91B;}-->
<!--	.st4{fill:none;stroke:#707070;}-->
<!--</style>-->
<path class="st0" d="M-147.01,48.73c0.04,2.73-0.25,5.4-0.65,8.11c-0.31,2.07-1.1,4.02-1.09,6.16c0,1.01-0.57,1.82-1.22,2.49
	c-0.95,0.98-1.5,1.9-0.91,3.6c0.5,1.42-0.46,2.88-1.45,3.66c-1.85,1.48-3.75,2.92-5.85,3.93c-0.56,0.27-1.17,0.46-1.65,0.85
	c-2.29,1.88-5.12,2.47-7.44,4.38c-1.44,1.18-3.39,1.62-5.27,1.58c-1.62-0.03-3.15,0.29-4.71,0.79c-1.54,0.5-3.17,0.21-4.76,0.11
	c-0.35-0.02-0.71-0.15-1.06-0.13c-3.18,0.23-6.02-1.09-8.91-2.35c-1.86-0.81-3.76-1.71-5.86-1.38c-0.59,0.09-1.13-0.21-1.57-0.63
	c-1.75-1.67-3.35-3.49-4.78-5.54c-1.16-1.66-1.27-3.68-1.61-5.61c-0.46-2.68-1.02-5.32-1.93-7.84c-0.91-2.52-1.22-4.97-0.4-7.67
	c0.64-2.11,1.41-4.07,2.63-5.79c0.68-0.97,0.77-2.24,1.36-3.28c1.19-2.11,3.16-2.83,4.98-3.78c1.97-1.03,3.64-2.37,4.68-4.59
	c0.58-1.25,1.55-1.86,2.66-1.98c1.63-0.18,2.92-1.17,4.27-2.04c0.79-0.51,1.62-0.91,2.48-1.06c1.22-0.21,2.11-0.88,2.87-1.91
	c0.77-1.04,1.67-1.7,2.93-1.66c1.03,0.03,1.91-0.63,2.72-1.28c1.32-1.04,2.7-1.58,4.3-1.17c0.34,0.09,0.71,0.09,1.06,0.03
	c1.28-0.21,2.49-0.23,3.65,0.7c0.65,0.52,1.5,0.34,2.28,0.06c1.52-0.56,2.89-0.26,4.25,0.72c1.25,0.89,2.23,2.09,3.33,3.16
	c2.69,2.63,5.07,5.7,8.17,7.76c1.04,0.7,1.77,1.65,1.66,3.15c-0.08,1.03,0.51,1.85,0.64,2.82
	C-146.95,44.98-147.03,46.85-147.01,48.73z"/>
<path class="st0" d="M78.84,40.42c-0.15,1.5,0.05,3.01,0.11,4.5c0.18,4.3-1.45,8.19-1.84,12.35c-0.1,1.04-1.04,1.59-1.32,2.61
	c-0.38,1.41-0.64,2.84-0.96,4.26c-0.23,1.05-0.7,1.92-1.27,2.78c-1.59,2.4-3.58,4.39-5.16,6.81c-1.48,2.28-3.66,3.54-5.81,4.83
	c-2.34,1.4-4.78,2.5-7.19,3.68c-0.66,0.33-1.34,0.44-2.07,0.33c-1.23-0.17-2.48-0.21-3.71,0.04c-1.44,0.3-2.69-0.58-4.04-0.84
	c-2.28-0.42-4.3-1.86-6.55-2.47c-1.08-0.29-2.17-0.3-3.26-0.49c-0.59-0.1-1.1-0.28-1.54-0.73c-1.83-1.88-3.48-3.93-4.82-6.3
	c-0.17-0.3-0.33-0.67-0.34-1.01c-0.04-2.93-1.38-5.46-1.93-8.22c-0.45-2.22-1.85-4.03-1.86-6.44c-0.01-1.2,0.05-2.38,0.34-3.5
	c0.54-2.08-0.07-4.06-0.31-6.04c-0.28-2.33,0.19-4.46,0.88-6.56c0.9-2.7,2.51-4.97,3.65-7.54c0.83-1.89,2.4-3.1,4.26-3.8
	c1.83-0.69,3.42-1.96,4.5-3.88c0.5-0.9,1.09-1.57,2.05-1.78c2.02-0.44,3.69-1.85,5.56-2.72c2.03-0.94,4.08-1.46,6.33-1.12
	c1.3,0.2,2.7-0.31,4.01,0.12c2.11,0.68,4.28,0.54,6.41,0.86c2.54,0.39,4.45,2.26,6.05,4.44c0.73,0.99,1.51,1.84,2.47,2.46
	c0.66,0.43,1.28,0.92,1.76,1.56c1.11,1.51,2.31,2.87,3.9,3.71c0.39,0.21,0.72,0.62,0.79,1.11C78.21,35.77,79.28,37.96,78.84,40.42z"
	/>
<path class="st1" d="M671.61-356.49c-1.75-0.13-4.14,0.33-6.49-0.23c-1.97-0.47-3.96-0.97-5.75-2.12c-1.3-0.84-2.77-0.68-4.16-0.77
	c-1.77-0.12-3.19-0.67-4.33-2.36c-1.01-1.5-2.24-2.83-3.43-4.17c-0.8-0.9-1.13-1.96-1.12-3.19c0.01-2.41-0.73-4.6-1.47-6.79
	c-0.31-0.92-0.16-1.95-0.64-2.82c-0.21-0.37-0.27-0.86-0.49-1.21c-1.27-2-1.03-4.12-0.4-6.26c0.39-1.31,0.31-2.75,0.85-4.02
	c0.09-0.22,0.1-0.52,0.23-0.67c1.66-1.9,2.37-4.52,3.81-6.59c0.9-1.29,2.07-2.1,3.42-2.58c2.02-0.71,3.33-2.39,4.53-4.24
	c1.57-2.44,3.67-4.08,6.21-4.76c1.71-0.46,3.1-1.31,3.91-3.02c0.84-1.76,1.83-2.71,3.65-2.06c0.78,0.28,1.31-0.46,1.85-0.98
	c1.03-1.01,2.05-2.12,3.55-1.87c1.15,0.2,2.27,0.44,3.44,0.05c0.45-0.15,0.89,0.26,1.28,0.53c0.99,0.67,2.03,0.84,3.06,0.32
	c1.84-0.93,3.31-0.09,4.72,1.13c0.71,0.61,1.28,1.4,1.9,2.12c2.03,2.33,4.14,4.55,6.48,6.47c2.03,1.66,3.18,3.69,3.22,6.72
	c0.03,2.29-0.11,4.64,0.47,6.92c0.13,0.51-0.02,1.13-0.12,1.69c-0.46,2.74,0.11,5.56-0.44,8.28c-0.61,3.08-1.27,6.16-1.96,9.22
	c-0.36,1.58-1.27,2.88-1.82,4.39c-0.51,1.4-0.65,2.9-1.25,4.26c-0.55,1.25-1.38,2.04-2.39,2.67c-2.35,1.48-4.84,2.73-7.12,4.27
	c-2.36,1.59-4.75,1.32-7.16,1.62C675.87-356.31,674.04-356.49,671.61-356.49z"/>
<path class="st2" d="M725.12-288.94c0.1,1.53,0.03,2.86,0.36,4.19c0.24,1,0,2.08-0.12,3.13c-0.31,2.87-1.26,5.58-1.52,8.45
	c-0.09,1.04-0.51,1.95-1.15,2.69c-1.1,1.29-1.64,2.81-1.6,4.62c0.05,2.23-1.07,3.6-2.69,4.4c-1.45,0.72-2.55,2.11-4.01,2.7
	c-2.2,0.9-3.93,2.85-6.11,3.62c-2.74,0.96-5.37,2.45-8.2,2.92c-2.67,0.44-5.35-0.2-8.03-0.58c-1.79-0.26-3.14-1.62-4.85-1.94
	c-1.53-0.29-3.08-0.47-4.59-0.83c-1.37-0.33-2.76-0.68-3.58-2.28c-0.6-1.17-1.58-1.97-2.42-2.9c-1.69-1.88-2.43-4.24-2.61-6.88
	c-0.14-2.11-0.9-4.02-1.54-5.94c-0.83-2.49-1.33-5.01-0.92-7.64c0.31-1.98,0.55-3.98,1.18-5.91c0.87-2.67,0.66-5.65,1.72-8.28
	c0.22-0.55,0.35-1.21,0.69-1.64c1.02-1.3,1.68-2.79,2.19-4.42c0.83-2.64,2.65-4.17,4.86-4.89c2.14-0.7,3.6-2.24,4.79-4.18
	c0.68-1.11,1.41-1.6,2.56-1.43c0.91,0.13,1.64-0.51,2.32-1.06c0.56-0.44,1.14-0.81,1.69-1.26c0.67-0.54,1.37-0.63,2.12-0.34
	c0.1,0.04,0.21,0.12,0.3,0.1c2.51-0.58,4.84,1.15,7.33,0.74c0.81-0.13,1.56-0.87,2.45-0.28c1.49,0.99,3.2,1.6,4.18,3.41
	c0.65,1.2,1.54,2.08,2.62,2.79c1.73,1.14,3.01,2.95,4.58,4.36c1.62,1.45,3.09,3.1,4.08,5.25c0.43,0.93,1.22,1.58,2.07,2.05
	c0.91,0.51,1.32,1.32,1.45,2.5C724.93-292.04,725.33-290.42,725.12-288.94z"/>
<path class="st3" d="M608.7-171.76c-3.53,0.29-6.73-0.56-9.79-2.26c-1.52-0.84-3.19-1.11-4.85-1.1c-2.28,0.01-3.88-1.04-5.06-3.3
	c-0.57-1.1-1.5-1.94-2.25-2.92c-1.25-1.64-1.34-3.8-1.91-5.75c-0.78-2.69-1.3-5.49-2.45-8.03c-0.81-1.8-0.62-3.71-0.32-5.6
	c0.45-2.81,2.14-5.03,2.85-7.67c0.7-2.62,1.82-5.03,2.74-7.51c0.98-2.62,2.46-5.02,3.9-7.38c0.92-1.51,2.29-2.39,3.91-2.95
	c1.78-0.62,3.14-2.15,4.24-3.91c0.7-1.11,1.48-1.75,2.84-1.56c1.08,0.15,2.06-0.66,2.89-1.55c0.83-0.9,1.79-1.42,2.99-1.19
	c0.35,0.07,0.72,0.09,1.06,0.02c1.49-0.31,2.85,0.06,4.2,0.8c0.65,0.36,1.39,0.27,2.08-0.02c1.17-0.5,2.26-0.33,3.38,0.29
	c1.46,0.8,2.74,1.85,3.77,3.28c0.83,1.14,1.81,2.06,2.87,2.9c0.65,0.52,1.22,1.11,1.67,1.87c0.64,1.1,1.73,1.56,2.64,2.22
	c1.63,1.18,2.38,2.92,2.9,4.92c0.8,3.07,1.34,6.2,1.81,9.36c0.21,1.42,0.28,2.81,0.35,4.22c0.09,1.63-0.34,3.13-0.69,4.66
	c-0.05,0.24-0.18,0.48-0.15,0.7c0.34,2.62-1.04,4.77-1.42,7.17c-0.32,1.98-1.13,3.63-1.89,5.36c-0.28,0.64-0.46,1.39-0.52,2.11
	c-0.19,2.28-1.34,3.85-2.87,5.04c-2.64,2.06-5.41,3.89-8.29,5.45c-1.48,0.8-3.04,1.45-4.73,1.73
	C612.59-172.01,610.62-171.52,608.7-171.76z"/>
<path class="st0" d="M476.91-360.1c-4.64-0.2-9.29,0.01-13.91-0.73c-1.98-0.32-3.81-1.16-5.59-2.16c-0.63-0.35-1.23-0.6-1.93-0.54
	c-1.25,0.11-2.48-0.18-3.71-0.28c-0.24-0.02-0.51-0.1-0.7-0.25c-2.63-2.15-5.02-4.63-6.24-8.12c-0.59-1.69-0.48-3.69-1.09-5.43
	c-0.76-2.15-1.17-4.41-2.03-6.55c-0.79-1.98-0.41-4.24,0.07-6.36c0.57-2.52,1.41-4.86,3.01-6.77c0.28-0.33,0.4-0.86,0.54-1.32
	c0.76-2.53,2.24-4.17,4.47-4.99c2.23-0.82,4.01-2.4,5.38-4.57c0.33-0.52,0.77-0.86,1.26-1.1c3-1.44,5.99-2.92,9.15-3.89
	c1.4-0.43,2.81-0.1,4.22-0.29c2.91-0.39,5.82,0.08,8.7,0.55c0.99,0.16,1.98,0.08,2.97,0.15c3.17,0.21,6.06,1.29,8.26,4.06
	c1.06,1.33,2.16,2.56,3.49,3.54c1.17,0.87,1.77,2.41,2.94,3.33c0.59,0.46,1.21,0.84,1.81,1.27c0.55,0.39,0.96,0.88,1.04,1.61
	c0.25,2.32,1.06,4.58,0.58,6.99c-0.15,0.76,0.4,1.39,0.37,2.14c-0.12,2.47-0.46,4.91-0.69,7.37c-0.17,1.88-0.91,3.59-1.03,5.47
	c-0.07,1.04-0.69,1.75-1.32,2.43c-1.08,1.15-1.43,2.49-1.02,4.19c0.29,1.22-0.26,2.39-1.12,3.06c-2.08,1.61-4.15,3.28-6.52,4.33
	c-0.26,0.12-0.56,0.2-0.77,0.4c-2.52,2.34-5.5,2.56-8.55,2.46C478.26-360.12,477.58-360.1,476.91-360.1z"/>
<path class="st3" d="M570.42-384.7c-1.42-0.11-3.21,0.26-4.96-0.21c-2.09-0.56-4.22-1.02-6.18-2.1c-1.05-0.58-2.12-0.86-3.28-0.88
	c-3.38-0.05-6.17-1.56-8.39-4.51c-0.9-1.2-1.78-2.44-2.78-3.54c-0.79-0.88-1.2-1.93-1.35-3.1c-0.19-1.51-0.55-2.93-1.14-4.3
	c-0.34-0.8-0.58-1.64-0.65-2.56c-0.1-1.26-0.38-2.46-1.04-3.55c-0.44-0.73-0.56-1.63-0.63-2.55c-0.14-1.74-0.34-3.48-0.65-5.19
	c-0.52-2.87,0.28-5.45,1.42-7.84c1.25-2.63,2.67-5.17,4.33-7.52c0.56-0.8,1.25-1.23,2.05-1.4c1.64-0.35,2.93-1.41,3.81-2.9
	c0.95-1.62,2.27-2.51,3.78-2.93c2.01-0.57,3.72-1.96,5.72-2.5c0.21-0.06,0.43-0.26,0.6-0.22c1.96,0.53,3.96-0.29,5.91,0.29
	c0.81,0.24,1.62,0.22,2.43,0.21c2.52-0.03,4.81,0.83,6.92,2.35c1,0.73,2.17,0.95,3.2,1.63c2.34,1.55,4.08,3.86,6.09,5.82
	c2.21,2.15,4.05,4.8,6.58,6.53c1.25,0.85,1.44,2.37,1.52,3.84c0.09,1.75,0.02,3.51,0.04,5.26c0.01,0.53-0.01,1.09,0.13,1.57
	c0.61,2.11-0.2,4.09-0.34,6.13c-0.01,0.2-0.18,0.39-0.16,0.58c0.25,2.54-1.1,4.69-1.27,7.12c-0.05,0.78-0.38,1.38-0.92,1.85
	c-0.91,0.79-1.43,1.85-1.28,3.17c0.35,3.01-1.07,4.5-3.19,5.91c-2.54,1.7-5.29,2.9-7.77,4.72c-1.25,0.91-2.76,0.63-4.15,0.78
	C573.48-384.58,572.12-384.7,570.42-384.7z"/>
<path class="st3" d="M482.23-121.43c-0.2,3.04,0.09,5.26-0.01,7.51c-0.13,2.94-0.94,5.66-1.51,8.46c-0.28,1.36-0.18,2.92-1.12,4
	c-0.73,0.85-0.96,1.87-1.16,2.95c-0.01,0.04-0.02,0.08-0.02,0.12c0.13,3.28-1.65,4.9-3.87,6.38c-1.87,1.25-3.76,2.43-5.76,3.37
	c-0.93,0.44-1.59,1.34-2.55,1.74c-2.42,1.01-4.94,0.74-7.43,0.97c-2.5,0.24-4.73-1.06-7.2-1.06c-1.97,0-4.04-0.74-5.86-1.95
	c-0.24-0.16-0.51-0.32-0.78-0.37c-2.06-0.35-3.96-1.55-6.09-1.48c-0.56,0.02-1.11-0.26-1.38-0.79c-1.01-1.96-2.69-3.21-3.89-4.98
	c-0.84-1.24-0.85-2.62-1.26-3.92c-0.78-2.48-1.33-5.04-1.83-7.61c-0.13-0.69-0.57-1.29-0.86-1.94c-1.14-2.57-1-5.19-0.3-7.81
	c1.6-6.04,4.66-10.99,8.76-15.13c0.13-0.13,0.28-0.26,0.44-0.34c2.69-1.34,4.85-3.48,6.85-5.88c0.85-1.02,1.88-1.55,3.14-1.52
	c0.92,0.03,1.72-0.47,2.45-1.07c2.87-2.41,5.98-2.39,9.18-1.16c0.74,0.28,1.48,0.39,2.2,0.27c3.92-0.67,6.74,1.46,9.2,4.59
	c0.76,0.97,1.59,1.85,2.59,2.5c0.68,0.44,1.36,0.95,1.76,1.73c0.75,1.46,2.01,2.14,3.22,2.89c1.28,0.79,2.01,1.89,2.24,3.6
	C481.66-125.12,482.48-122.97,482.23-121.43z"/>
<path class="st2" d="M592.91-287.22c0.26,3.03-0.53,6.39-1.11,9.83c-0.59,3.49-1.56,6.75-2.87,9.93c-0.27,0.65-0.31,1.42-0.51,2.11
	c-0.6,2.1-2.08,3.18-3.65,4.2c-2.1,1.36-4.2,2.69-6.51,3.51c-0.3,0.11-0.6,0.3-0.83,0.53c-1.41,1.4-3.16,1.58-4.88,1.66
	c-2.3,0.11-4.61-0.02-6.92,0.04c-0.82,0.02-1.57-0.26-2.26-0.58c-1.54-0.71-3.19-0.99-4.71-1.85c-1.6-0.91-3.49-0.91-5.26-1.22
	c-0.97-0.17-1.75-0.52-2.44-1.29c-2.31-2.58-4.49-5.3-6.43-8.27c-0.51-0.78-0.91-1.69-1.01-2.66c-0.28-2.52-1.03-4.9-1.53-7.35
	c-0.49-2.43-1.69-4.61-1.6-7.28c0.07-1.98,0.29-3.87,0.86-5.71c0.43-1.38,0.97-2.68,2.07-3.6c0.61-0.51,0.76-1.45,1.02-2.25
	c0.83-2.55,2.21-4.38,4.65-5.01c2.01-0.52,3.36-2.22,4.61-3.92c0.79-1.07,1.46-1.93,2.84-1.97c1.51-0.05,2.76-1.2,4.1-1.92
	c1.04-0.56,2.1-0.98,3.26-0.95c2.08,0.06,4.16-0.35,6.26-0.04c1.18,0.18,2.4-0.11,3.54,0.57c0.44,0.26,0.99,0.31,1.47,0.16
	c2.85-0.89,4.95,0.72,6.89,2.74c2.68,2.79,5.15,5.88,8.01,8.37c2.45,2.13,2.88,4.84,2.96,7.92
	C592.94-290.26,592.91-289,592.91-287.22z"/>
<path class="st2" d="M529.92,764.6c-0.99,1.68-0.47,3.57,0.04,5.5c0.22,0.84,0.7,1.02,1.39,1.37c2.23,1.11,4.73,1.64,6.69,3.32
	c0.61,0.52,1.06,0.87,0.71,1.74c-0.23,0.56-0.23,1.31,0.28,1.69c1.59,1.17,1.84,2.95,2.38,4.63c0.26,0.81,0.04,1.37-0.44,1.97
	c-0.69,0.88-1.18,1.81-0.47,2.96c0.33,0.54,0.19,1.1-0.43,1.33c-3.09,1.15-4.38,3.89-5.89,6.49c-1.27,2.19-4.21,3.34-3.86,6.6
	c0.06,0.59-0.82,1.62-1.88,1.93c-1,0.3-1.58,1.24-2.32,1.94c-1.28,1.2-2.75,2.12-4.36,2.82c-0.9,0.39-1.94,0.66-2.69-0.13
	c-0.68-0.72-1.36,0.11-1.39,0.16c-0.91,1.64-2.45,2.98-2.53,5.03c-0.01,0.35-0.09,0.84,0.1,1.03c1.96,1.9-0.12,3.05-0.96,4.14
	c-0.98,1.28-2.4,0.81-3.72,0.03c-1.19-0.7-2.38-1.15-4-1.05c-1.3,0.08-3.08-0.49-4.33-1.55c-1.4-1.19-2.69-2.59-4.82-2.38
	c-0.67,0.07-1.1-0.42-1.24-1.09c-0.18-0.89-0.81-1.46-1.59-1.5c-1.9-0.09-2.14-1.4-2.29-2.81c-0.13-1.27-0.4-2.26-2.05-1.97
	c-0.61,0.11-1.02-0.35-1.18-0.91c-0.93-3.29-3.16-5.9-4.74-8.84c-0.55-1.02-1.22-2.3-2.71-2.76c-1.14-0.36-1.73-3.04-1.56-4.33
	c0.31-2.25,0.8-4.35,2.62-5.89c0.58-0.49-0.13-0.51-0.25-0.75c-1-1.99-2.48-3.81-2.13-6.28c0.11-0.78,0.29-1.51,0.53-2.25
	c0.57-1.72,1.66-3.18,1.95-5.11c0.17-1.16,1.65-2.25,2.74-3.13c1.3-1.06,2.21-2.32,2.91-3.81c0.63-1.35,1.34-2.68,2.06-3.98
	c0.95-1.72,0.86-3.3-0.41-4.83c-0.81-0.97-1.55-1.98-1.73-3.3c-0.1-0.74,0.14-1.28,0.67-1.75c0.58-0.52,1-0.13,1.59,0.08
	c1.37,0.5,2.54,1.32,3.79,2.02c0.98,0.55,1.58,2.05,2.71,1.85c2.09-0.37,4.25-0.71,6.15-1.84c0.78-0.47,0.91-1.21,1.08-1.97
	c0.81-3.63,2.54-4.23,5.9-2.88c2.09,0.84,4.04,2.01,6.23,2.62c0.86,0.24,1.67,0.75,1.6,1.71c-0.26,3.37,2.42,3.96,4.58,4.57
	C528.55,756.7,529.31,759.71,529.92,764.6z"/>
<path class="st3" d="M536.8,411.12c1.28,0.45,2.36-0.03,3.42-0.65c1.22-0.71,2.39-0.73,3.43,0.35c0.62,0.65,1.32,0.99,2.26,0.74
	c0.33-0.09,0.81-0.17,1.05,0c2.67,1.79,5.9,0.06,8.62,1.41c2.27-1.16,3.77,1.78,5.96,1.12c0.28-0.08,0.55,0.3,0.54,0.61
	c-0.02,1.68,1.16,1.67,2.34,1.75c0.89,0.06,1.8,0.16,2.66,0.4c1.49,0.41,2.62,1.22,2.5,3.01c-0.06,0.94,0.35,1.74,0.73,2.56
	c0.24,0.53,0.55,0.98-0.08,1.59c-1.03,0.99-0.18,1.54,0.72,1.6c0.87,0.06,1.51,0.25,1.97,0.97c0.7,1.1,1.29,1.79,3,1.38
	c1.26-0.3,1.9,1.55,2.22,2.77c0.32,1.21,0.49,2.41-0.43,3.7c-0.9,1.25-0.91,3.07-2.54,3.94c-0.57,0.3-0.6,1.02-0.41,1.63
	c0.67,2.1,0.93,4.21,0.81,6.44c-0.08,1.51-0.83,3.04-1.7,3.56c-1.9,1.13-2.2,3.2-3.51,4.62c-0.41,0.45-0.57,1.18-1.07,1.63
	c-0.6,0.55-0.55,1.02-0.13,1.71c0.42,0.69,0.55,1.56,0.81,2.35c0.31,0.96-0.87,0.8-0.94,1.07c-0.45,1.91-2.67,3.3-1.46,5.75
	c0.82,1.65-0.24,4.27-1.64,5.07c-1.58,0.91-3.08,0.54-4.66-1.13c-1.35-1.43-2.49-1.39-3.57,0.23c-0.42,0.63-0.92,0.89-1.62,0.92
	c-1.6,0.07-3.25-0.23-4.76,0.61c-0.14,0.07-0.47,0.07-0.51-0.01c-0.77-1.37-2.27-0.32-3.12-0.9c-1.98-1.36-4.44-1.53-6.41-2.97
	c-0.87-0.64-1.93-1.65-3.56-1.15c-1.19,0.36-2.61-0.37-3.97-0.37c-0.74,0-1.52-0.39-1.67-1.36c-0.07-0.43-0.36-0.75-0.73-0.98
	c-1.44-0.87-2.24-2.06-2.16-3.84c0.05-1.12-0.61-1.92-1.74-2.23c-0.59-0.17-0.99-0.58-1.47-0.93c-1.93-1.42-1.69-3.54-1.69-5.42
	c0-2.27-0.44-4.49-0.41-6.74c0-0.26-0.17-0.6-0.38-0.77c-1.49-1.18-1.58-2.6-1.09-4.35c0.6-2.14,0.28-4.38-0.4-6.43
	c-1.3-3.89-0.62-6.24,2.94-8.27c1.12-0.64,1.96-1.42,2.15-2.69c0.63-4.29,3.18-7.28,6.44-9.84c0.75-0.59,1.41-1.29,2.06-1.99
	C535.97,411.2,536.25,410.84,536.8,411.12z"/>
<path class="st0" d="M636.16,630.24c0.48,2.34-1.73,3.06-2.56,4.56c-0.66,1.2-1.54,2.25-1.77,3.66c-0.07,0.46-0.25,0.96-0.54,1.31
	c-0.78,0.96-1.2,2.24-1.84,3.07c-1.16,1.48-1.67,3.43-3.26,4.59c-1.35,0.98-2.28,2.27-2.66,3.93c-0.22,0.96-0.72,1.76-1.52,2.37
	c-0.28,0.21-0.6,0.51-0.67,0.83c-0.46,2.21-1.33,3.65-4.02,2.96c-0.79-0.2-1.27,0.76-1.51,1.54c-0.23,0.75-0.36,1.56-1.12,1.97
	c-1.08,0.59-1.48,1.57-1.49,2.69c-0.03,1.67-0.94,2.07-2.37,1.81c-1.11-0.2-2.2-0.4-3.19-1.1c-1.43-1-3.15-0.38-4.73-0.55
	c-1.37-0.14-2.42-0.56-3.18-1.69c-0.1-0.15-0.2-0.38-0.34-0.41c-2.96-0.65-4.19-3.68-6.92-4.86c-3.34-1.45-6.13-3.72-8.06-7.24
	c-1.97-3.6-2.93-7.32-3.51-11.24c-0.17-1.14-0.67-2.09-1.34-2.87c-0.71-0.82-0.83-1.42-0.34-2.37c1.09-2.08,0.84-4.59,2.03-6.66
	c0.27-0.47-0.03-0.93-0.43-1.26c-0.9-0.73-2.31-1.19-2.41-2.43c-0.15-2.01,1.06-3.61,2.38-5c0.9-0.95,1.67-2.02,2.73-2.84
	c0.8-0.62,1.16-1.64,1.45-2.64c0.97-3.38,2.88-6.09,5.85-8.01c0.83-0.54,1.74-0.73,2.75-0.53c1.84,0.36,3.49,0.06,5.04-1.15
	c1.75-1.36,3.81-1.99,6.07-1.86c0.06,0,0.12,0.01,0.18,0c3.39-0.34,6.49,0,8.73,3.1c0.5,0.7,1.65,0.93,2.48,1.41
	c2.13,1.21,4.4,2.25,5.65,4.54c1.17,2.16,3.13,3.51,4.97,4.99c0.86,0.69,1.48,1.49,1.65,2.67c0.27,1.91,1.98,2.74,3.36,3.52
	c2.37,1.34,2.75,3.83,3.84,5.86C636,627.8,636.6,629.1,636.16,630.24z"/>
<path class="st0" d="M479.32,574.5c0.3,1.22,1.03,0.86,1.96,0.32c-0.54,1.59-0.61,2.97-0.39,4.43c0.28,1.93-1.68,2.31-2.78,3.04
	c-1.69,1.13-2.98,2.27-2.95,4.44c0,0.22-0.11,0.62-0.19,0.62c-1.98,0.09-1.89,1.6-2.31,2.97c-0.42,1.36-2.02,1.63-3.24,2
	c-1.43,0.44-2.36,1.24-2.6,2.65c-0.28,1.64-1.77,2.46-2.75,3.12c-1.45,0.98-1.96,3.22-4.48,3.09c-1.11-0.06-2.08,1.97-2.86,3.23
	c-0.55,0.89-0.99,1.83-1.89,2.42c-0.58,0.38-0.44,0.81-0.12,1.21c0.51,0.65,0.52,1.4,0.69,2.17c-3.6-0.34-6.98-1.43-10.54-1.21
	c-0.99,0.06-1.99-0.57-2.67-1.26c-1.26-1.27-2.1-3.06-3.53-4.01c-1.71-1.13-1.67-2.41-1.7-4.11c-0.02-1.08-0.75-2.3-1.48-3.2
	c-1.95-2.38-4.04-4.64-6.13-6.9c-0.6-0.65-1.56-0.99-2.28-0.38c-0.92,0.78-1.34,0.27-1.89-0.36c-1.19-1.35-2.48-2.69-4.12-3.4
	c-2-0.87-1.81-2.72-0.87-3.83c0.69-0.81,0.98-1.43,0.54-2.51c-0.37-0.92-0.16-1.77,1.09-2.23c2.96-1.08,4.21-3.63,3.38-6.74
	c-0.42-1.57,1.43-1.51,1.69-2.65c0.13-0.59,0.76-0.01,1.14,0.25c0.5,0.34,1.08,0.39,1.46-0.1c0.45-0.59-0.08-0.99-0.47-1.35
	c-0.44-0.4-1-0.7-1.38-1.14c-0.88-1.02-0.36-1.85,0.76-2.4c1.19-0.59,3.23-0.52,3.06-2.72c-0.06-0.74,0.57-1.04,0.97-1.41
	c1.7-1.58,2.76-3.45,2.9-5.79c0.03-0.52,0.16-0.9,0.66-1.17c0.62-0.32,0.9-0.92,1.13-1.56c0.83-2.25,1.63-2.82,3.99-2.82
	c0.78,0,1.55,0.12,2.33,0.17c1.81,0.12,3.47,0.02,5.12-1.08c2.69-1.78,7.9-1.23,10.56,0.77c2.52,1.89,4.68,4.18,7.22,6.1
	c2.56,1.93,3.87,5.1,5.08,8.23c1.03,2.68,2.34,5.35,5.43,6.74c2.01,0.91,2.93,3.2,3.7,5.29C481,574.7,480.28,574.79,479.32,574.5z"
	/>
<path class="st3" d="M620.88,829.44c0.45-1.85,0.02-3.35-0.89-4.78c-0.21-0.33-0.36-0.82-0.31-1.19c0.37-2.34-0.88-4.25-1.72-6.23
	c-0.51-1.19,0.45-2.04,0.27-3.12c-0.18-1.06-0.01-2.08,1.42-2.22c0.33-0.03,0.37-0.41,0.54-0.65c0.61-0.87,0.68-2.14,2.38-2.14
	c1.18,0,1.68-4.42,0.54-5.16c-1.11-0.72-0.93-1.39-0.77-2.52c0.32-2.3,0.33-4.6,1.46-6.76c0.6-1.15,1.31-2.09,2.21-2.99
	c1.64-1.64,3.31-3.28,2.88-6c-0.2-1.24,0.56-1.79,1.88-1.72c1.48,0.07,2.81,0.6,4.13,1.1c3.02,1.14,5.71,1.06,8.35-1.1
	c1.55-1.27,3.49-1.93,5.38-0.3c0.13,0.11,0.32,0.25,0.47,0.24c2.11-0.13,3.54,0.78,4.6,2.62c0.6,1.04,0.75,2.26,1.64,3.19
	c0.74,0.78,1.38,1.35,2.52,1.44c3,0.24,6.07,3.25,6.55,6.23c0.12,0.74,0.27,1.43-0.49,1.93c-0.35,0.23-0.47,0.5-0.21,0.9
	c0.47,0.71,0.43,1.45,0.13,2.23c-0.1,0.25-0.13,0.7,0.02,0.84c1.98,1.86,2.05,4.49,2.85,6.83c0.25,0.74,0.46,1.62,1.6,1.7
	c0.97,0.06,1.43-0.37,1.76-1.18c0.39-0.97,1.05-0.49,1.63-0.23c0.68,0.3,1.78,0.45,1.5,1.43c-0.42,1.44-0.11,3-1.21,4.37
	c-0.84,1.04,0.29,2.48,0.31,3.8c0.01,1.28-0.08,1.9-1.54,2.21c-2.45,0.52-4.07,2.62-6.19,3.84c-0.71,0.41-1.6,2.19-1.43,3.56
	c0.15,1.18-0.39,1.88-1.27,2.04c-2.19,0.4-3.41,2.09-4.38,3.64c-1.09,1.74-2.61,2.51-4.26,3.27c-0.58,0.27-1.2,0.35-0.84,1.21
	c0.13,0.3,0.1,0.62-0.18,0.81c-2.31,1.53-3.22,4.28-5.29,6.04c-0.99,0.84-1.78,0.18-2.19-0.27c-1.66-1.79-3.17-1.1-4.96-0.25
	c-1.26,0.6-3.12,0.11-3.69-0.84c-1.14-1.91-3.17-2.62-4.57-4.16c-2.31-2.53-5.14-4.65-7.83-6.79
	C621.82,832.83,621.47,831.15,620.88,829.44z"/>
<path class="st2" d="M509.51,879.24c1.21-0.56,3.48-0.25,4.57-2.45c0.25-0.51,0.75-1.04,1.26-1.25c2.25-0.91,3.06-2.85,3.86-4.9
	c0.72-1.82,1.28-1.8,2.97-0.93c2.12,1.09,3.88,2.93,6.58,2.95c1.02,0.01,1.67,1.41,2.33,2.29c1.31,1.75,2.72,3.33,4.8,4.2
	c0.51,0.21,1.07,0.5,1.17,1.04c0.32,1.71,1.5,2.96,2.23,4.45c1.01,2.05,2.02,4.13,3.89,5.59c0.09,0.07,0.25,0.2,0.23,0.26
	c-0.53,1.61,1.16,2.42,1.36,3.83c0.22,1.51,1.09,2.92,2.15,4.02c0.89,0.93,1.05,1.71,0.3,2.65c-0.62,0.78-0.74,1.43,0.01,2.2
	c0.65,0.66,0.34,1.33-0.24,1.88c-0.3,0.28-0.67,0.44-0.45,1.01c0.25,0.67,1.58,0.83,1.14,1.56c-1.17,1.94-1.68,4.47-4.3,5.29
	c-1.11,0.35-2.1,0.93-2.38,2.22c-0.03,0.12-0.05,0.29-0.13,0.33c-2.26,1.13-4.28,2.44-4.81,5.21c-0.08,0.4-0.89,0.39-1.32,0.26
	c-1.62-0.48-3.08,0.15-4.54,0.63c-0.94,0.3-1.57,0.83-2.13,1.87c-1.1,2.05-3.07,3.8-5.23,4.3c-2.01,0.46-2.64,1.65-3.42,3.04
	c-0.47,0.83-0.88,1.7-1.27,2.58c-0.52,1.15-1.4,1.35-2.33,0.71c-1.52-1.04-3.29-1.71-4.63-3.04c-0.96-0.96-2.13-1.22-3.47-1.07
	c-2.46,0.28-2.79-0.47-2.76-2.79c0.02-1.33,0.04-2.87-0.43-4.2c-0.31-0.87-0.33-1.44,0.45-2.02c1.08-0.79,0.65-1.62-0.21-2.16
	c-1.05-0.66-2.15-1.36-3.51-1.17c-1.03,0.15-1.58-0.45-1.89-1.3c-0.4-1.1-0.77-2.15-2.18-2.32c-0.46-0.05-0.7-0.46-0.54-0.96
	c0.57-1.68-0.31-2.88-1.04-4.32c-0.69-1.35-0.6-3.19-0.54-4.8c0.03-1.02,0.73-1.99,0.28-3.13c-0.2-0.51,0.4-0.68,0.73-0.87
	c1.84-1.07,2.36-2.65,1.98-4.68c-0.13-0.72,0.27-1.31,0.71-1.95c0.88-1.27,1.83-2.58,1.09-4.34c-0.37-0.87,0.16-1.58,0.84-2.19
	c0.95-0.84,1.71-1.75,1.63-3.22c-0.05-0.84,0.34-1.8,1.54-1.85c0.59-0.03,1.04-0.36,1.31-0.84
	C506.04,879.38,507.44,879.27,509.51,879.24z"/>
<path class="st2" d="M427.06,470.74c-2.41,1.15-4.73,1.34-7.12,0.93c-0.54-0.09-1.13-0.31-1.58-0.05c-1.48,0.85-2.85,0.17-4.13-0.34
	c-1.38-0.54-2.62-1.37-4.19-1.39c-0.63-0.01-1.06-0.48-1.14-1.19c-0.08-0.7-0.43-1.42-1.16-1.42c-2.86-0.01-5.04-2.17-8-2.16
	c-2.82,0.01-5.18-4.84-4.12-7.88c0.56-1.6,0.6-3.01-0.14-4.63c-0.5-1.09-0.87-2.43,0.12-3.77c0.93-1.25,0.39-3.05-0.06-4.16
	c-0.44-1.09-0.26-2.83-1.83-3.42c-0.12-0.05-0.23-0.49-0.15-0.64c0.9-1.62-0.2-3.23-0.04-4.89c0.12-1.3,0.48-2.26,1.45-2.83
	c1.22-0.72,1.72-1.85,2.45-2.93c2.57-3.78,4.9-7.74,7.97-11.13c1.98-2.18,4.92-2.75,7.58-3.73c0.21-0.08,0.54-0.1,0.7,0.02
	c3.43,2.43,7.61,1.66,11.39,2.64c5.17,1.33,8.62,4.24,10.73,9.02c0.58,1.32,1.01,2.99,3.25,2.24c0.92-0.31,2.39,1.81,2.3,3.18
	c-0.09,1.36,0,2.37,1.81,1.79c0.97-0.31,1.09,0.36,1.13,1.1c0.03,0.69-0.42,1.16-0.84,1.53c-1.49,1.31-1.34,3.72-3.25,4.73
	c-0.46,0.24-0.41,0.67-0.15,1.09c1.12,1.8,0.78,3.61,0.16,5.5c-0.4,1.21-0.61,2.49-0.75,3.76c-0.08,0.79-0.62,1.55-1.07,1.46
	c-2.27-0.42-2.29,1.64-2.47,2.61c-0.35,1.95-1.39,3.58-2.47,4.87c-2.18,2.59-2.98,5.41-2.77,8.58c0.11,1.7-1.47,2.19-1.94,3.44
	c-0.16,0.41-0.82-0.12-1.19-0.42C427.07,471.85,427.44,471.17,427.06,470.74z"/>
<path class="st3" d="M387.9,705.74c-1.16-1.3-1.08-1.84,0.39-2.32c1.15-0.38,2.2-0.95,3.54-0.9c2.37,0.09,3.83-1.28,4.33-3.63
	c0.12-0.58,0.42-1.02,1.09-0.98c2.46,0.15,5.03-0.05,6.87,2.14c0.35,0.42,0.86,0.43,1.33,0.26c2.12-0.77,3.87,0.05,5.47,1.31
	c1.68,1.33,3.85,1.85,5.39,3.49c1.45,1.55,1.9,3.62,3.21,5.24c0.71,0.88-0.11,1.75-1.6,2.54c2.82,0.14,3.97,1.46,4.67,3.43
	c0.64,1.78,1.48,3.43,1.26,5.47c-0.11,1.02,0.54,2.12,0.79,3.2c0.22,1,0.84,2.26-1.11,2.21c-0.25-0.01-0.52,0.18-0.43,0.44
	c0.1,0.25,0.35,0.49,0.59,0.62c1.34,0.69,1.45,1.28-0.12,1.73c-0.7,0.2-1.08,0.7-1.42,1.28c-0.24,0.41-0.45,1.05-0.79,1.15
	c-1.94,0.56-2.37,1.9-2.29,3.71c0.04,0.93-0.65,1.47-1.54,1.75c-1.48,0.47-2.95,0.98-4.39,1.53c-1.06,0.4-2.12,0.83-2.53,2.09
	c-0.37,1.13-1.68,0.71-2.41,1.35c-1.03,0.9-1.77,2.37-3.54,2.07c-0.14-0.02-0.47,0.29-0.48,0.45c-0.07,2.11-2.14,3.51-1.99,5.69
	c0.03,0.4-0.08,1.07-0.57,0.93c-1.71-0.47-2.04,0.92-2.58,1.87c-0.63,1.1-1.2,1.37-2.21,0.45c-1.61-1.47-3.66-0.73-5.48-0.82
	c-1.55-0.08-2.48-0.61-2.7-1.98c-0.17-1.06-0.59-1.85-1.13-2.73c-1.39-2.23-0.85-4.63-0.19-6.95c0.46-1.63-0.18-2.82-1.84-3.11
	c-1.45-0.25-2.64-0.75-2.81-2.48c-0.04-0.38-0.29-0.87-0.59-1.06c-1.21-0.77-2.25-1.48-1.93-3.25c0.23-1.3-0.44-2.69,0.51-3.98
	c0.62-0.84,0.4-1.58-0.8-1.79c-0.44-0.08-0.98,0.06-1.32-0.45c0.27-1,1.31-0.83,2.01-1.26c-2.29-0.55-2.93-1.58-2.84-4.64
	c0.04-1.46,0.03-2.88-0.19-4.36c-0.27-1.83,0.82-3.54,1.74-5.11c0.41-0.7,2.59,0.11,2.74,1.05c0.31,1.88,1.64,3.31,2.1,5.13
	c0.24,0.94,1.19,0.86,1.98,0.83c0.76-0.03,1.24-0.37,1.31-1.19c0.06-0.76,0.69-1.39,0.46-2.25c-0.21-0.77,0.55-0.8,0.98-1.06
	c0.51-0.3,0.76-0.64,0.65-1.31c-0.11-0.64-0.39-0.86-1-1.04c-1.79-0.53-2.65-2.38-2-4.05C386.72,705.76,387.47,706.27,387.9,705.74z
	"/>
<g id="Rectangle_53">
	<rect x="-618.38" y="-519.45" class="st2" width="239.27" height="193.95"/>
	<rect x="-618.28" y="-519.36" class="st4" width="239.07" height="193.76"/>
</g>
<g id="Rectangle_54" transform="translate(1511)">
	<rect x="-1839.23" y="-519.45" class="st0" width="239.27" height="193.95"/>
	<rect x="-1839.13" y="-519.36" class="st4" width="239.07" height="193.76"/>
</g>
<g id="Rectangle_55" transform="translate(3022)">
	<rect x="-3060.07" y="-519.45" class="st3" width="239.27" height="193.95"/>
	<rect x="-3059.98" y="-519.36" class="st4" width="239.07" height="193.76"/>
</g>
</svg>
