<svg version="1.1" id="Layer_1" xmlns="http://www.w3.org/2000/svg" xmlns:xlink="http://www.w3.org/1999/xlink" x="0px" y="0px"
	 viewBox="0 0 104.17 101.74" style="fill:#f6b985; enable-background:new 0 0 104.17 101.74;" xml:space="preserve">
<!--<style type="text/css">-->
<!--	.st0{fill:#B2C5CC;}-->
<!--	.st1{fill:#66BCB1;}-->
<!--	.st2{fill:#F6B985;}-->
<!--	.st3{fill:#F9E91B;}-->
<!--	.st4{fill:none;stroke:#707070;}-->
<!--</style>-->
<path class="st0" d="M81.99,48.73c0.04,2.73-0.25,5.4-0.65,8.11c-0.31,2.07-1.1,4.02-1.09,6.16c0,1.01-0.57,1.82-1.22,2.49
	c-0.95,0.98-1.5,1.9-0.91,3.6c0.5,1.42-0.46,2.88-1.45,3.66c-1.85,1.48-3.75,2.92-5.85,3.93c-0.56,0.27-1.17,0.46-1.65,0.85
	c-2.29,1.88-5.12,2.47-7.44,4.38c-1.44,1.18-3.39,1.62-5.27,1.58c-1.62-0.03-3.15,0.29-4.71,0.79c-1.54,0.5-3.17,0.21-4.76,0.11
	c-0.35-0.02-0.71-0.15-1.06-0.13c-3.18,0.23-6.02-1.09-8.91-2.35c-1.86-0.81-3.76-1.71-5.86-1.38c-0.59,0.09-1.13-0.21-1.57-0.63
	c-1.75-1.67-3.35-3.49-4.78-5.54c-1.16-1.66-1.27-3.68-1.61-5.61c-0.46-2.68-1.02-5.32-1.93-7.84c-0.91-2.52-1.22-4.97-0.4-7.67
	c0.64-2.11,1.41-4.07,2.63-5.79c0.68-0.97,0.77-2.24,1.36-3.28c1.19-2.11,3.16-2.83,4.98-3.78c1.97-1.03,3.64-2.37,4.68-4.59
	c0.58-1.25,1.55-1.86,2.66-1.98c1.63-0.18,2.92-1.17,4.27-2.04c0.79-0.51,1.62-0.91,2.48-1.06c1.22-0.21,2.11-0.88,2.87-1.91
	c0.77-1.04,1.67-1.7,2.93-1.66c1.03,0.03,1.91-0.63,2.72-1.28c1.32-1.04,2.7-1.58,4.3-1.17c0.34,0.09,0.71,0.09,1.06,0.03
	c1.28-0.21,2.49-0.23,3.65,0.7c0.65,0.52,1.5,0.34,2.28,0.06c1.52-0.56,2.89-0.26,4.25,0.72c1.25,0.89,2.23,2.09,3.33,3.16
	c2.69,2.63,5.07,5.7,8.17,7.76c1.04,0.7,1.77,1.65,1.66,3.15c-0.08,1.03,0.51,1.85,0.64,2.82C82.05,44.98,81.97,46.85,81.99,48.73z"
	/>
</svg>
